Run_50002
nRows=4
nColumns=164

# SIMM Motion File Header:
name Run_50002
datacolumns 164
datarows 4
otherdata 1
range 3.77000000 3.80000000
endheader
time	pelvis_tilt	pelvis_list	pelvis_rotation	pelvis_tx	pelvis_ty	pelvis_tz	hip_flexion_r	hip_adduction_r	hip_rotation_r	knee_angle_r	ankle_angle_r	hip_flexion_l	hip_adduction_l	hip_rotation_l	knee_angle_l	ankle_angle_l	lumbar_extension	lumbar_bending	lumbar_rotation	arm_flex_r	arm_add_r	arm_rot_r	elbow_flex_r	pro_sup_r	arm_flex_l	arm_add_l	arm_rot_l	elbow_flex_l	pro_sup_l	subtalar_angle_r	mtp_angle_r	subtalar_angle_l	mtp_angle_l	wrist_flex_r	wrist_dev_r	wrist_flex_l	wrist_dev_l	LASI_tx	LASI_ty	LASI_tz	RASI_tx	RASI_ty	RASI_tz	LPSI_tx	LPSI_ty	LPSI_tz	RPSI_tx	RPSI_ty	RPSI_tz	RTH1_tx	RTH1_ty	RTH1_tz	RTH2_tx	RTH2_ty	RTH2_tz	RTH3_tx	RTH3_ty	RTH3_tz	LTH1_tx	LTH1_ty	LTH1_tz	LTH2_tx	LTH2_ty	LTH2_tz	LTH3_tx	LTH3_ty	LTH3_tz	RTB1_tx	RTB1_ty	RTB1_tz	RTB2_tx	RTB2_ty	RTB2_tz	RTB3_tx	RTB3_ty	RTB3_tz	LTB1_tx	LTB1_ty	LTB1_tz	LTB2_tx	LTB2_ty	LTB2_tz	LTB3_tx	LTB3_ty	LTB3_tz	RCAL_tx	RCAL_ty	RCAL_tz	RTOE_tx	RTOE_ty	RTOE_tz	RMT5_tx	RMT5_ty	RMT5_tz	LCAL_tx	LCAL_ty	LCAL_tz	LTOE_tx	LTOE_ty	LTOE_tz	LMT5_tx	LMT5_ty	LMT5_tz	LACR_tx	LACR_ty	LACR_tz	RACR_tx	RACR_ty	RACR_tz	CLAV_tx	CLAV_ty	CLAV_tz	C7_tx	C7_ty	C7_tz	RUA1_tx	RUA1_ty	RUA1_tz	RUA2_tx	RUA2_ty	RUA2_tz	RUA3_tx	RUA3_ty	RUA3_tz	RLEL_tx	RLEL_ty	RLEL_tz	RMEL_tx	RMEL_ty	RMEL_tz	LUA1_tx	LUA1_ty	LUA1_tz	LUA2_tx	LUA2_ty	LUA2_tz	LUA3_tx	LUA3_ty	LUA3_tz	LLEL_tx	LLEL_ty	LLEL_tz	LMEL_tx	LMEL_ty	LMEL_tz	RFAsuperior_tx	RFAsuperior_ty	RFAsuperior_tz	RFAradius_tx	RFAradius_ty	RFAradius_tz	RFAulna_tx	RFAulna_ty	RFAulna_tz	LFAsuperior_tx	LFAsuperior_ty	LFAsuperior_tz	LFAradius_tx	LFAradius_ty	LFAradius_tz	LFAulna_tx	LFAulna_ty	LFAulna_tz
      3.77000000	     -3.11818299	      5.82303956	     -0.94364795	      0.87504492	      1.00067181	     -0.34116151	    -25.61799711	     -3.03538113	     -2.39821564	    -11.46065127	    -21.01877455	     41.88138596	      9.54122047	     -2.95287698	    -57.32995358	     -2.11717688	     -5.03100781	     -8.67621435	      9.83419924	    -14.10379391	    -30.97669768	    -15.43706619	    108.63993295	     71.46656958	    -44.87836218	    -23.22865953	     -9.58728291	     92.73244385	     95.03296105	      0.00000000	      0.00000000	      0.00000000	      0.00000000	      0.00000000	      0.00000000	      0.00000000	      0.00000000	      0.87639004	      1.03553823	     -0.47256657	      0.88126311	      1.00380763	     -0.21382473	      0.71140580	      1.05468250	     -0.39769076	      0.71146935	      1.05140517	     -0.29809598	      0.71401623	      0.85168931	     -0.16704247	      0.73774281	      0.73084727	     -0.18401121	      0.61333365	      0.66019013	     -0.21316903	      0.87037599	      0.85789463	     -0.51732817	      1.00349911	      0.78747099	     -0.49723508	      1.01653990	      0.66544337	     -0.46893813	      0.53430296	      0.41859437	     -0.28220110	      0.47013395	      0.39285425	     -0.22101136	      0.41955396	      0.29200409	     -0.28372050	      1.07066838	      0.44782215	     -0.39838953	      0.99200531	      0.38415496	     -0.45409671	      1.00694697	      0.30287298	     -0.39250853	      0.26205183	      0.27654899	     -0.30054931	      0.36547544	      0.07713895	     -0.32011946	      0.31806657	      0.09823777	     -0.23014386	      0.85364388	      0.20687868	     -0.36864152	      1.06400532	      0.11559417	     -0.37252346	      1.00040278	      0.10427099	     -0.45369285	      0.82301427	      1.49896388	     -0.52063683	      0.86553259	      1.51474537	     -0.19862592	      0.89790160	      1.44322466	     -0.33378403	      0.77499814	      1.51967162	     -0.34437198	      0.84027101	      1.45187347	     -0.09860477	      0.77933119	      1.37766655	     -0.09178796	      0.82496306	      1.33921864	     -0.04313802	      0.80958682	      1.24534396	      0.01682993	      0.77659816	      1.20931595	     -0.05315954	      0.74194152	      1.45693051	     -0.58663499	      0.67076755	      1.40939151	     -0.54331320	      0.63075523	      1.36379586	     -0.60491078	      0.58115971	      1.29498997	     -0.63009359	      0.57293619	      1.29138136	     -0.55425341	      0.91540896	      1.23851099	     -0.00726962	      1.04989946	      1.23095108	     -0.07987514	      1.04707132	      1.16508075	     -0.05108988	      0.65093882	      1.21049061	     -0.64400249	      0.75461321	      1.08528274	     -0.59659254	      0.69863162	      1.05530782	     -0.62952126
      3.78000000	     -3.57096713	      6.23549372	     -1.64537139	      0.87625040	      1.00426940	     -0.34061070	    -25.83816404	     -4.13631577	     -3.69001539	    -13.67674571	    -27.14253610	     40.47283241	      9.79873347	     -1.92285227	    -47.31221892	     -1.15650605	     -4.04233655	     -9.11926451	     10.72783200	    -13.90588795	    -30.83601540	    -15.23777084	    109.28756668	     72.52293584	    -46.48417896	    -22.56715544	    -10.95132641	     93.49678328	     94.49784541	      0.00000000	      0.00000000	      0.00000000	      0.00000000	      0.00000000	      0.00000000	      0.00000000	      0.00000000	      0.87848511	      1.03996716	     -0.47045558	      0.88132964	      1.00648430	     -0.21338241	      0.71363436	      1.06087237	     -0.39924019	      0.71288136	      1.05672648	     -0.29936689	      0.70949360	      0.85885424	     -0.16902329	      0.73158836	      0.73647307	     -0.18290840	      0.60701209	      0.66766222	     -0.21370588	      0.87138349	      0.86408347	     -0.51719555	      1.00116506	      0.78862763	     -0.49632442	      1.01236182	      0.66578988	     -0.46639415	      0.52200201	      0.42717616	     -0.28009587	      0.45694348	      0.40483475	     -0.21867270	      0.40215217	      0.30514675	     -0.27990194	      1.07927322	      0.44412547	     -0.39641667	      1.01207691	      0.36945130	     -0.45415815	      1.03633471	      0.29231097	     -0.39148742	      0.25334754	      0.30375403	     -0.29528045	      0.32370839	      0.08951247	     -0.31702495	      0.27851940	      0.11740525	     -0.22947904	      0.89846663	      0.17454905	     -0.36882850	      1.12093554	      0.11629347	     -0.37055362	      1.06091311	      0.09955332	     -0.45181622	      0.82102460	      1.50208940	     -0.52059857	      0.86479401	      1.51842215	     -0.19918834	      0.89732834	      1.44726195	     -0.33453393	      0.77378462	      1.52222718	     -0.34383961	      0.84032042	      1.45562840	     -0.09904012	      0.77931729	      1.38099988	     -0.09250110	      0.82569150	      1.34306220	     -0.04385353	      0.81204873	      1.24905670	      0.01676125	      0.77867223	      1.21260846	     -0.05307400	      0.73957586	      1.46238387	     -0.58616402	      0.66988146	      1.41498126	     -0.54108617	      0.62639938	      1.37200497	     -0.60161429	      0.57496516	      1.30393895	     -0.62557599	      0.56932167	      1.30011687	     -0.55046107	      0.91754833	      1.24378008	     -0.00867141	      1.05052996	      1.23933392	     -0.08397044	      1.05017200	      1.17335942	     -0.05479541	      0.64343878	      1.21901697	     -0.64178129	      0.74968633	      1.09350557	     -0.59776970	      0.69281198	      1.06342121	     -0.62908077
      3.79000000	     -3.85438935	      6.12720832	     -2.41173106	      0.87689194	      1.00690016	     -0.34014155	    -25.43297177	     -4.76434956	     -4.20235375	    -17.45007529	    -31.52700329	     38.38312815	      9.56410810	     -0.18520469	    -37.02636470	      0.69477820	     -3.36231932	     -8.91801525	     11.57045681	    -13.75734452	    -30.80897460	    -15.04990427	    109.81889447	     73.70123554	    -47.38197456	    -21.63068528	    -12.25448390	     93.87524064	     94.29477000	      0.00000000	      0.00000000	      0.00000000	      0.00000000	      0.00000000	      0.00000000	      0.00000000	      0.00000000	      0.87977694	      1.04292227	     -0.46888644	      0.88010630	      1.00986355	     -0.21274861	      0.71482402	      1.06601649	     -0.40059882	      0.71368918	      1.06179483	     -0.30037984	      0.70651967	      0.86516279	     -0.17241104	      0.72875013	      0.74026671	     -0.18314933	      0.60488837	      0.67189474	     -0.21457012	      0.87090054	      0.86647371	     -0.51660373	      0.99764151	      0.78656262	     -0.49477737	      1.00676745	      0.66195183	     -0.46520388	      0.51294315	      0.43303344	     -0.27856231	      0.44743884	      0.41443534	     -0.21705018	      0.38631186	      0.31815695	     -0.27684755	      1.08463062	      0.43804588	     -0.39520788	      1.02943976	      0.35447739	     -0.45464285	      1.06262286	      0.28249092	     -0.39022718	      0.24527754	      0.33016243	     -0.29059362	      0.28471656	      0.10717588	     -0.31465866	      0.24181851	      0.14079505	     -0.22975694	      0.94334610	      0.14565700	     -0.37060597	      1.17206099	      0.12396021	     -0.36714553	      1.11568723	      0.10523306	     -0.44837543	      0.81965256	      1.50417077	     -0.52080669	      0.86396247	      1.52127796	     -0.19934917	      0.89713683	      1.45053300	     -0.33513305	      0.77314314	      1.52433154	     -0.34353675	      0.84002767	      1.45800995	     -0.09927923	      0.77835008	      1.38255103	     -0.09380724	      0.82523798	      1.34572361	     -0.04440166	      0.81315070	      1.25141940	      0.01622092	      0.77985081	      1.21490766	     -0.05337866	      0.73775193	      1.46587896	     -0.58565684	      0.66984973	      1.41792163	     -0.53856015	      0.62331726	      1.37740746	     -0.59750129	      0.57075650	      1.31003004	     -0.62136985	      0.56753507	      1.30519737	     -0.54687431	      0.91856693	      1.24747363	     -0.00970562	      1.05009426	      1.24502112	     -0.08764307	      1.05179750	      1.17905579	     -0.05799931	      0.63868106	      1.22488306	     -0.64049226	      0.74711361	      1.09932579	     -0.59935234	      0.68953181	      1.06902795	     -0.62909732
      3.80000000	     -4.08573960	      5.51784580	     -3.05229293	      0.87688986	      1.00824755	     -0.33995338	    -24.53853848	     -4.72749926	     -3.37972132	    -22.44447464	    -33.21615513	     36.01358488	      8.85921799	      2.14564278	    -27.17931408	      3.47462850	     -2.93319498	     -8.12648324	     12.15084932	    -13.68551173	    -30.88845273	    -14.86587179	    110.23131130	     74.98059125	    -47.61477556	    -20.50398808	    -13.46115542	     93.94553638	     94.33543280	      0.00000000	      0.00000000	      0.00000000	      0.00000000	      0.00000000	      0.00000000	      0.00000000	      0.00000000	      0.88020637	      1.04417182	     -0.46804532	      0.87840948	      1.01358126	     -0.21218788	      0.71508984	      1.06973260	     -0.40163770	      0.71379867	      1.06598958	     -0.30126604	      0.70562611	      0.86943545	     -0.17670147	      0.72920781	      0.74138557	     -0.18478437	      0.60717352	      0.67277443	     -0.21549463	      0.86919224	      0.86522877	     -0.51565867	      0.99307890	      0.78139205	     -0.49299470	      0.99816879	      0.65372756	     -0.46488553	      0.50700072	      0.43704614	     -0.27750892	      0.44079520	      0.42303219	     -0.21588673	      0.37200976	      0.33223447	     -0.27471997	      1.08706164	      0.43125869	     -0.39487342	      1.04345106	      0.34144962	     -0.45505444	      1.08458996	      0.27510885	     -0.38885557	      0.23521910	      0.35639188	     -0.28695053	      0.25084952	      0.13025608	     -0.31332265	      0.21090100	      0.16757315	     -0.22927160	      0.98559737	      0.12246783	     -0.37308621	      1.21403538	      0.13845368	     -0.36198292	      1.15966468	      0.11981566	     -0.44318835	      0.81911296	      1.50512885	     -0.52129729	      0.86306756	      1.52308730	     -0.19934705	      0.89726017	      1.45282675	     -0.33563204	      0.77314903	      1.52593873	     -0.34363185	      0.83920203	      1.45912262	     -0.09952299	      0.77690751	      1.38272500	     -0.09548436	      0.82375698	      1.34728928	     -0.04482611	      0.81284212	      1.25245756	      0.01519245	      0.77990610	      1.21618695	     -0.05415819	      0.73661455	      1.46741623	     -0.58504289	      0.67067669	      1.41850160	     -0.53585210	      0.62169555	      1.37977061	     -0.59286268	      0.56866400	      1.31298767	     -0.61797247	      0.56753998	      1.30652370	     -0.54385140	      0.91839532	      1.24953914	     -0.01052581	      1.04870565	      1.24780974	     -0.09078156	      1.05185683	      1.18207956	     -0.06048687	      0.63684777	      1.22799474	     -0.64024919	      0.74705757	      1.10255669	     -0.60127297	      0.68888302	      1.07189771	     -0.62951024
